<?xml version="1.0" encoding="utf-8"?>
<svg width="177" height="43.2" viewBox="0 0 177 43.2" fill="none" xmlns="http://www.w3.org/2000/svg">
  <g>
    <path d="M3.24 36L3.24 7.2L14.22 7.2Q17.172 7.2 19.404 8.316Q21.636 9.432 22.842 11.448Q24.048 13.464 24.048 16.236Q24.048 18.9 22.842 20.862Q21.636 22.824 19.404 23.904Q17.172 24.984 14.22 24.984L9.324 24.984L9.324 36L3.24 36ZM9.324 19.512L14.256 19.512Q15.984 19.512 16.974 18.648Q17.964 17.784 17.964 16.236Q17.964 14.652 16.974 13.788Q15.984 12.924 14.256 12.924L9.324 12.924L9.324 19.512ZM41.796 21.996L41.796 26.352L36.504 27.144Q35.352 27.324 34.722 27.954Q34.092 28.584 34.092 29.52Q34.092 30.528 34.758 31.122Q35.424 31.716 36.684 31.716Q38.016 31.716 39.078 31.14Q40.14 30.564 40.77 29.61Q41.4 28.656 41.4 27.504L41.4 21.96Q41.4 20.124 40.446 19.17Q39.492 18.216 37.548 18.216Q36.252 18.216 35.244 18.648Q34.236 19.08 33.624 19.89Q33.012 20.7 32.796 21.852L27.18 21.852Q27.432 19.152 28.764 17.208Q30.096 15.264 32.346 14.22Q34.596 13.176 37.584 13.176Q42.192 13.176 44.64 15.318Q47.088 17.46 47.088 21.528L47.088 36L41.4 36L41.4 33.804L40.068 33.804Q39.42 35.136 38.196 35.838Q36.972 36.54 35.028 36.54Q33.012 36.54 31.464 35.73Q29.916 34.92 29.052 33.462Q28.188 32.004 28.188 30.096Q28.188 27.18 30.006 25.38Q31.824 23.58 35.244 23.04L41.796 21.996ZM53.604 36L53.604 13.86L59.436 13.86L59.436 15.876L60.768 15.876Q61.488 14.616 62.784 13.896Q64.08 13.176 65.772 13.176Q67.968 13.176 69.516 14.22Q71.064 15.264 71.892 17.226Q72.72 19.188 72.72 21.96L72.72 36L66.888 36L66.888 23.4Q66.888 21.024 65.952 19.818Q65.016 18.612 63.18 18.612Q61.308 18.612 60.372 19.818Q59.436 21.024 59.436 23.4L59.436 36L53.604 36ZM0 38.7L75.6 38.7L75.6 40.5L0 40.5L0 38.7Z" fill="#FFCC00" />
    <path d="M11.916 36.684Q8.784 36.684 6.534 35.496Q4.284 34.308 3.06 32.094Q1.836 29.88 1.836 26.82L1.836 23.4L7.812 23.4L7.812 26.604Q7.812 28.8 8.874 29.97Q9.936 31.14 11.916 31.14Q13.896 31.14 14.958 29.97Q16.02 28.8 16.02 26.604L16.02 13.032L3.888 13.032L3.888 7.2L22.104 7.2L22.104 26.82Q22.104 29.88 20.88 32.094Q19.656 34.308 17.37 35.496Q15.084 36.684 11.916 36.684ZM32.364 22.608L44.64 22.608L42.732 24.768Q42.732 21.492 41.598 19.836Q40.464 18.18 38.16 18.18Q35.82 18.18 34.614 19.926Q33.408 21.672 33.408 24.804Q33.408 28.188 34.596 29.934Q35.784 31.68 38.304 31.68Q39.744 31.68 40.842 31.014Q41.94 30.348 42.732 29.124L48.348 29.124Q47.628 31.536 46.188 33.228Q44.748 34.92 42.714 35.802Q40.68 36.684 38.16 36.684Q34.92 36.684 32.598 35.28Q30.276 33.876 29.034 31.212Q27.792 28.548 27.792 24.804Q27.792 21.24 29.07 18.63Q30.348 16.02 32.688 14.598Q35.028 13.176 38.16 13.176Q41.22 13.176 43.38 14.544Q45.54 15.912 46.71 18.486Q47.88 21.06 47.88 24.768Q47.88 25.344 47.826 25.848Q47.772 26.352 47.736 26.784L32.364 26.784L32.364 22.608ZM57.564 22.608L69.84 22.608L67.932 24.768Q67.932 21.492 66.798 19.836Q65.664 18.18 63.36 18.18Q61.02 18.18 59.814 19.926Q58.608 21.672 58.608 24.804Q58.608 28.188 59.796 29.934Q60.984 31.68 63.504 31.68Q64.944 31.68 66.042 31.014Q67.14 30.348 67.932 29.124L73.548 29.124Q72.828 31.536 71.388 33.228Q69.948 34.92 67.914 35.802Q65.88 36.684 63.36 36.684Q60.12 36.684 57.798 35.28Q55.476 33.876 54.234 31.212Q52.992 28.548 52.992 24.804Q52.992 21.24 54.27 18.63Q55.548 16.02 57.888 14.598Q60.228 13.176 63.36 13.176Q66.42 13.176 68.58 14.544Q70.74 15.912 71.91 18.486Q73.08 21.06 73.08 24.768Q73.08 25.344 73.026 25.848Q72.972 26.352 72.936 26.784L57.564 26.784L57.564 22.608ZM78.516 43.2L78.516 13.86L84.348 13.86L84.348 15.948L85.68 15.948Q86.328 14.688 87.66 13.986Q88.992 13.284 90.612 13.284Q93.276 13.284 95.256 14.706Q97.236 16.128 98.316 18.738Q99.396 21.348 99.396 24.912Q99.396 28.512 98.316 31.122Q97.236 33.732 95.256 35.154Q93.276 36.576 90.612 36.576Q88.992 36.576 87.66 35.856Q86.328 35.136 85.68 33.912L84.348 33.912L84.348 43.2L78.516 43.2ZM88.884 31.392Q91.188 31.392 92.484 29.682Q93.78 27.972 93.78 24.912Q93.78 21.852 92.484 20.16Q91.188 18.468 88.884 18.468Q86.544 18.468 85.248 20.178Q83.952 21.888 83.952 24.948Q83.952 28.008 85.248 29.7Q86.544 31.392 88.884 31.392ZM0 38.7L76.716 38.7L76.716 40.5L0 40.5L0 38.7ZM86.148 38.7L100.8 38.7L100.8 40.5L86.148 40.5L86.148 38.7Z" transform="translate(75.6 0)" fill="#000000" />
  </g>
</svg>